<?xml version="1.0" encoding="UTF-8" standalone="no"?>
<!-- Created with Inkscape (http://www.inkscape.org/) -->

<svg
   xmlns:dc="http://purl.org/dc/elements/1.1/"
   xmlns:cc="http://creativecommons.org/ns#"
   xmlns:rdf="http://www.w3.org/1999/02/22-rdf-syntax-ns#"
   xmlns:svg="http://www.w3.org/2000/svg"
   xmlns="http://www.w3.org/2000/svg"
   version="1.1"
   width="614.28003"
   height="177.14999"
   id="svg2">
  <defs
     id="defs4" />
  <metadata
     id="metadata7">
    <rdf:RDF>
      <cc:Work
         rdf:about="">
        <dc:format>image/svg+xml</dc:format>
        <dc:type
           rdf:resource="http://purl.org/dc/dcmitype/StillImage" />
        <dc:title></dc:title>
      </cc:Work>
    </rdf:RDF>
  </metadata>
  <g
     transform="translate(0,-875.21218)"
     id="layer1">
    <path
       d="m 0,875.20593 0,177.15627 614.28125,0 0,-177.15627 -614.28125,0 z m 154.46875,32.5 24.75,0 16.59375,51.28125 0,-51.28125 24.75,0 0,113.84377 -25.9375,0 -15.40625,-51.75002 0,51.75002 -24.75,0 0,-113.84377 z m 77.90625,0 29.625,0 0,113.84377 -29.625,0 0,-113.84377 z m 41.625,0 24.75,0 16.59375,51.28125 0,-51.28125 24.75,0 0,113.84377 -25.9375,0 -15.40625,-51.75002 0,51.75002 -24.75,0 0,-113.84377 z m 84.53125,0 29.59375,0 0,76.09375 c -5e-5,11.39066 -0.10941,18.71092 -0.34375,21.96872 -0.23441,3.2579 -1.32035,6.1875 -3.21875,8.8125 -1.89847,2.625 -4.46097,4.461 -7.71875,5.4688 -3.25784,1.0078 -8.15627,1.5 -14.71875,1.5 l -14.84375,0 0,-19.9063 c 1.78125,0.1407 3.07812,0.2188 3.875,0.2188 2.10937,0 3.74999,-0.5 4.96875,-1.5313 1.21874,-1.0312 1.93749,-2.31245 2.125,-3.81247 0.18749,-1.49998 0.28124,-4.40622 0.28125,-8.71875 l 0,-80.09375 z m 49.5,0 42.8125,0 16.9375,113.84377 -30.28125,0 -1.5,-20.4688 -10.59375,0 -1.78125,20.4688 -30.65625,0 15.0625,-113.84377 z m 22.625,25.46875 c -3.00004,21.75007 -4.87503,37.67193 -5.625,47.75 l 10.125,0 c -1.50004,-12.89057 -3.00004,-28.81243 -4.5,-47.75 z"
       id="rect2989"
       style="fill:#000000;stroke-width:100;stroke-miterlimit:4" />
  </g>
</svg>
