<?xml version="1.0" encoding="UTF-8" standalone="no"?>
<!-- Created with Inkscape (http://www.inkscape.org/) -->

<svg
   xmlns:dc="http://purl.org/dc/elements/1.1/"
   xmlns:cc="http://creativecommons.org/ns#"
   xmlns:rdf="http://www.w3.org/1999/02/22-rdf-syntax-ns#"
   xmlns:svg="http://www.w3.org/2000/svg"
   xmlns="http://www.w3.org/2000/svg"
   xmlns:sodipodi="http://sodipodi.sourceforge.net/DTD/sodipodi-0.dtd"
   xmlns:inkscape="http://www.inkscape.org/namespaces/inkscape"
   version="1.1"
   width="407.4375"
   height="127.74995"
   id="svg2"
   inkscape:version="0.48.4 r9939"
   sodipodi:docname="intro1_trials.svg">
  <sodipodi:namedview
     pagecolor="#ffffff"
     bordercolor="#666666"
     borderopacity="1"
     objecttolerance="10"
     gridtolerance="10"
     guidetolerance="10"
     inkscape:pageopacity="0"
     inkscape:pageshadow="2"
     inkscape:window-width="1020"
     inkscape:window-height="712"
     id="namedview3012"
     showgrid="false"
     fit-margin-top="0"
     fit-margin-left="0"
     fit-margin-right="0"
     fit-margin-bottom="0"
     inkscape:zoom="0.82221193"
     inkscape:cx="203.28127"
     inkscape:cy="65.515548"
     inkscape:window-x="0"
     inkscape:window-y="0"
     inkscape:window-maximized="0"
     inkscape:current-layer="svg2" />
  <defs
     id="defs4" />
  <metadata
     id="metadata7">
    <rdf:RDF>
      <cc:Work
         rdf:about="">
        <dc:format>image/svg+xml</dc:format>
        <dc:type
           rdf:resource="http://purl.org/dc/dcmitype/StillImage" />
        <dc:title></dc:title>
      </cc:Work>
    </rdf:RDF>
  </metadata>
  <path
     style="font-size:150px;font-style:normal;font-variant:normal;font-weight:normal;font-stretch:normal;line-height:125%;letter-spacing:0px;word-spacing:0px;fill:#000000;fill-opacity:1;stroke:none;font-family:Impact;-inkscape-font-specification:Impact"
     d="m 0,0 0,127.71875 367,0 c -7.60129,-0.18135 -14.15099,-1.72455 -19.625,-4.65625 -5.83497,-3.125 -9.66212,-7.10351 -11.46875,-11.9375 -1.80664,-4.83396 -2.71875,-11.67576 -2.71875,-20.5625 l 0,-7.78125 28.65625,0 0,14.4375 c -4e-5,4.44339 0.3818,7.29299 1.1875,8.5625 0.80563,1.26955 2.23043,1.90627 4.28125,1.90625 2.05074,2e-5 3.59273,-0.79491 4.59375,-2.40625 1.00093,-1.61131 1.49996,-4.01365 1.5,-7.1875 -4e-5,-6.98239 -0.9395,-11.53902 -2.84375,-13.6875 -1.95317,-2.14839 -6.77152,-5.75191 -14.4375,-10.78125 -7.66604,-5.078069 -12.75978,-8.767517 -15.25,-11.0625 -2.49024,-2.294857 -4.55177,-5.447198 -6.1875,-9.5 -1.63575,-4.052658 -2.4375,-9.23234 -2.4375,-15.53125 0,-9.081934 1.14941,-15.738178 3.46875,-19.9375 2.31932,-4.199107 6.07421,-7.475471 11.25,-9.84375 5.17576,-2.368044 11.42575,-3.562379 18.75,-3.5625 8.00777,1.21e-4 14.82905,1.318479 20.46875,3.90625 5.63959,2.588005 9.38763,5.850697 11.21875,9.78125 1.83098,3.930767 2.71868,10.607519 2.71875,20.03125 l 0,4.6875 -28.625,0 0,-8.8125 c -4e-5,-4.101467 -0.36137,-6.689354 -1.09375,-7.8125 -0.73246,-1.122946 -1.9473,-1.687399 -3.65625,-1.6875 -1.8555,1.01e-4 -3.26664,0.736428 -4.21875,2.25 -0.95218,1.513769 -1.43753,3.830173 -1.4375,6.90625 -3e-5,3.955166 0.55075,6.935632 1.625,8.9375 1.02536,2.002035 3.93356,4.418047 8.71875,7.25 13.72065,8.154364 22.34173,14.837952 25.90625,20.0625 3.56438,5.22466 5.34367,13.62895 5.34375,25.25 -8e-5,8.44728 -0.96004,14.68361 -2.9375,18.6875 -1.97761,4.00392 -5.80476,7.35254 -11.46875,10.0625 -5.31409,2.54249 -11.45903,3.87412 -18.40625,4.03125 l 37.5625,0 L 407.4375,0 0,0 z m 369.875,127.71875 -2.875,0 c 0.50119,0.012 0.98957,0.0312 1.5,0.0312 0.46469,0 0.9174,-0.0209 1.375,-0.0312 z M 2.875,6.6875 l 67.375,0 0,23.75 -18.3125,0 0,94.84375 -30.8125,0 0,-94.84375 -18.25,0 0,-23.75 z m 74.40625,0 21.84375,0 c 14.55074,1.19e-4 24.37983,0.564572 29.53125,1.6875 5.15131,1.123163 9.34661,3.979605 12.59375,8.59375 3.247,4.614361 4.87493,11.986424 4.875,22.09375 -7e-5,9.228593 -1.14265,15.419992 -3.4375,18.59375 -2.29499,3.173892 -6.79304,5.084047 -13.53125,5.71875 6.10345,1.513733 10.18158,3.554746 12.28125,6.09375 2.09954,2.539116 3.42473,4.87603 3.9375,7 0.51262,2.12407 0.74993,7.96098 0.75,17.53125 l 0,31.28125 -28.625,0 0,-39.40625 c -5e-5,-6.34761 -0.49907,-10.29877 -1.5,-11.8125 -1.00102,-1.513615 -3.627,-2.249947 -7.875,-2.25 l 0,53.46875 -30.84375,0 0,-118.59375 z m 80.875,0 30.8125,0 0,118.59375 -30.8125,0 0,-118.59375 z m 52,0 44.59375,0 17.65625,118.59375 -31.5625,0 -1.53125,-21.3125 -11.0625,0 -1.84375,21.3125 -31.9375,0 15.6875,-118.59375 z m 67.53125,0 30.8125,0 0,94.84375 18.75,0 0,23.75 -49.5625,0 0,-118.59375 z m -169.5625,20.28125 0,26.375 c 3.46675,7.2e-5 5.8896,-0.485279 7.28125,-1.4375 1.39155,-0.952074 2.0937,-4.025313 2.09375,-9.25 l 0,-6.53125 c -5e-5,-3.759673 -0.68852,-6.20303 -2.03125,-7.375 -1.34282,-1.171778 -3.77934,-1.781152 -7.34375,-1.78125 z m 125.59375,6.25 c -3.12504,22.656319 -5.06254,39.220754 -5.84375,49.71875 l 10.53125,0 c -1.56254,-13.42768 -3.12504,-29.992115 -4.6875,-49.71875 z"
     id="path3019"
     inkscape:connector-curvature="0" />
</svg>
