<?xml version="1.0" encoding="UTF-8" standalone="no"?>
<!-- Created with Inkscape (http://www.inkscape.org/) -->

<svg
   xmlns:dc="http://purl.org/dc/elements/1.1/"
   xmlns:cc="http://creativecommons.org/ns#"
   xmlns:rdf="http://www.w3.org/1999/02/22-rdf-syntax-ns#"
   xmlns:svg="http://www.w3.org/2000/svg"
   xmlns="http://www.w3.org/2000/svg"
   xmlns:sodipodi="http://sodipodi.sourceforge.net/DTD/sodipodi-0.dtd"
   xmlns:inkscape="http://www.inkscape.org/namespaces/inkscape"
   id="svg3216"
   version="1.1"
   inkscape:version="0.48.4 r9939"
   width="1000"
   height="1000"
   sodipodi:docname="logo_madgear.png">
  <metadata
     id="metadata3222">
    <rdf:RDF>
      <cc:Work
         rdf:about="">
        <dc:format>image/svg+xml</dc:format>
        <dc:type
           rdf:resource="http://purl.org/dc/dcmitype/StillImage" />
        <dc:title></dc:title>
      </cc:Work>
    </rdf:RDF>
  </metadata>
  <defs
     id="defs3220" />
  <sodipodi:namedview
     pagecolor="#ffffff"
     bordercolor="#666666"
     borderopacity="1"
     objecttolerance="10"
     gridtolerance="10"
     guidetolerance="10"
     inkscape:pageopacity="0"
     inkscape:pageshadow="2"
     inkscape:window-width="807"
     inkscape:window-height="642"
     id="namedview3218"
     showgrid="false"
     inkscape:zoom="0.236"
     inkscape:cx="500"
     inkscape:cy="500"
     inkscape:window-x="0"
     inkscape:window-y="0"
     inkscape:window-maximized="0"
     inkscape:current-layer="svg3216" />
  <path
     inkscape:connector-curvature="0"
     id="path3234"
     d="M 0,500 0,0 l 500,0 500,0 0,500 0,500 -500,0 -500,0 0,-500 z"
     style="fill:#fdfcfd" />
  <path
     inkscape:connector-curvature="0"
     id="path3230"
     d="m 528.5,973.5025 c -20.46251,-3.84987 -35.95865,-15.06015 -43.83248,-31.70947 -4.87057,-10.29888 -6.10738,-16.50219 -6.13946,-30.79303 -0.0328,-14.60065 1.15654,-20.30635 6.62956,-31.8052 7.30247,-15.3425 21.0399,-27.13704 38.34238,-32.91961 7.45629,-2.49193 9.22334,-2.67709 26,-2.72442 18.942,-0.0534 31.71092,1.80301 34.99586,5.08795 1.1691,1.16909 1.50073,4.10551 1.48883,13.18271 -0.0182,13.89755 -0.5274,15.2042 -5.1897,13.31792 -12.15411,-4.91731 -15.14024,-5.48429 -29.29499,-5.56225 -13.16624,-0.0725 -14.33925,0.0819 -19.6965,2.59308 -15.7896,7.40124 -23.94442,24.93497 -20.99826,45.14852 1.50523,10.32739 4.95258,17.37913 11.27489,23.06343 6.74512,6.06445 13.04617,8.13871 24.41987,8.03885 4.95,-0.0435 10.2375,-0.59482 11.75,-1.22525 L 561,946.0495 561,935.02475 561,924 549.75,923.9847 c -6.1875,-0.008 -11.82795,-0.38203 -12.53434,-0.83024 -0.95185,-0.60396 -1.21073,-3.77128 -1,-12.23469 L 536.5,899.5 l 27,0 27,0 0.26382,32.22263 0.26381,32.22262 -4.21571,2.1507 c -15.09465,7.70072 -39.961,10.85914 -58.31192,7.40655 z m 91.18071,-1.7525 c -1.57549,-1.15739 -1.68226,-5.88054 -1.44113,-63.75 l 0.26042,-62.5 36.43315,-0.26267 c 28.48225,-0.20534 36.60808,0.0129 37.23469,1 0.93392,1.47122 1.12047,19.84777 0.22517,22.18088 -0.52732,1.37418 -3.41486,1.58179 -22,1.58179 L 649,870 l 0,13 0,13 19.89301,0 c 17.21733,0 19.97465,0.21276 20.5,1.58179 C 689.72686,898.45177 690,903.36497 690,908.5 c 0,5.13503 -0.27314,10.04823 -0.60699,10.91821 -0.52535,1.36903 -3.28267,1.58179 -20.5,1.58179 L 649,921 l 0,13 0,13 21.56574,0 c 12.95347,0 22.33819,0.4134 23.5,1.03518 C 695.79696,948.9617 696,950.21765 696,960 c 0,9.78235 -0.20304,11.0383 -1.93426,11.96482 -2.9881,1.59918 -72.18777,1.39934 -74.38503,-0.21482 z m 87.56929,0.58772 c -0.6875,-0.27741 -1.25,-1.26242 -1.25,-2.18891 0,-1.49036 37.76188,-106.45225 43.14381,-119.92137 l 2.10679,-5.27257 17.56976,0.27257 17.56976,0.27256 22.23366,62.5 c 19.95369,56.0909 22.06755,62.62818 20.61381,63.75 -1.83839,1.41864 -27.85278,1.78105 -30.00011,0.41793 -0.69439,-0.44079 -3.20909,-6.6214 -5.58823,-13.73469 L 789.32353,945.5 l -21.41176,0 -21.41177,0 -4.21824,12.92135 c -2.32002,7.10674 -4.79502,13.28735 -5.5,13.73469 -1.36857,0.86842 -27.43246,1.02877 -29.53176,0.18168 z M 781,919.3141 c 0,-3.21483 -12.4723,-41.32333 -13.42097,-41.00711 -0.9223,0.30743 -13.57039,38.91734 -13.57617,41.44301 -0.002,0.93841 3.36228,1.25 13.49714,1.25 11.99493,0 13.5,-0.18795 13.5,-1.6859 z m 69.68071,52.4359 c -1.57549,-1.15739 -1.68226,-5.88054 -1.44113,-63.75 l 0.26042,-62.5 27.73821,-0.2658 c 21.44533,-0.2055 29.34671,0.0696 34.82825,1.21252 13.73464,2.86375 22.29344,8.67546 27.11203,18.40997 1.93173,3.90248 2.30028,6.23879 2.30998,14.64331 0.01,8.29905 -0.37443,10.83692 -2.25759,14.92034 -3.43714,7.45307 -8.24276,12.66299 -15.70629,17.02768 l -6.75103,3.94801 3.97527,3.55199 c 2.18639,1.95359 5.53139,5.57698 7.43333,8.05198 C 932.95014,933.20461 956,969.44524 956,970.7372 956,972.61657 953.05319,973 938.60934,973 c -9.86246,0 -14.71748,-0.38348 -15.82559,-1.25 -0.87919,-0.6875 -6.81564,-9.86054 -13.19212,-20.38453 C 897.3432,931.15018 892.57318,925.57336 886.56719,924.44663 879.81059,923.17908 880,922.51716 880,947.39719 c 0,19.08481 -0.23614,22.6961 -1.57143,24.03138 -2.03734,2.03734 -25.04923,2.30391 -27.74786,0.32143 z m 46.53824,-71.79401 c 10.43255,-2.8974 15.78227,-14.50045 11.0295,-23.92197 -2.77393,-5.49882 -6.9425,-7.27546 -18.36062,-7.82528 L 880,867.73261 l 0,16.63369 0,16.6337 6.75,-0.006 c 3.7125,-0.003 8.42353,-0.47036 10.46895,-1.03843 z M 42.459341,970.75 C 42.196502,970.0625 42.098125,941.6 42.240726,907.5 L 42.5,845.5 63.111068,845.23013 c 15.919274,-0.20843 20.855809,0.025 21.686216,1.02561 1.031282,1.24262 27.197786,76.33105 28.573016,81.99426 0.92289,3.80045 2.34552,3.43874 3.54379,-0.90103 2.02029,-7.3169 27.39629,-79.88523 28.36611,-81.11923 0.76111,-0.96843 5.77688,-1.20605 21.10906,-1 L 186.5,845.5 l 0,63 0,63 -14.5,0 -14.5,0 -0.5,-43 c -0.275,-23.65 -0.8536,-42.45442 -1.28577,-41.78761 -0.43218,0.66682 -6.63705,18.21682 -13.7886,39 -7.15156,20.78319 -13.72159,39.70011 -14.60009,42.03761 l -1.59726,4.25 -11.74169,0 c -8.20561,0 -12.03594,-0.37645 -12.71872,-1.25 -0.76225,-0.97521 -21.14199,-57.54491 -29.000852,-80.5 C 71.466756,887.9125 70.404297,886 69.905998,886 69.378714,886 69,903.97432 69,929 l 0,43 -13.031385,0 c -9.503567,0 -13.160757,-0.3384 -13.509274,-1.25 z M 206,970.54156 c 0,-2.03288 43.89112,-122.70545 45.20739,-124.29145 1.47578,-1.7782 33.13867,-1.77831 34.51575,-1.1e-4 C 286.8808,847.74486 330,969.01645 330,970.77748 c 0,1.74916 -30.5368,1.74566 -31.69098,-0.004 -0.44496,-0.67439 -2.60902,-6.63689 -4.80902,-13.25 l -4,-12.02385 -21.68317,-0.26932 -21.68318,-0.26931 -4.33937,13.26931 -4.33937,13.26932 -15.72745,0.27539 C 208.24979,972.01139 206,971.83489 206,970.54156 z m 75.35402,-50.30536 c 0.7518,-1.21644 -12.74566,-42.58424 -13.85402,-42.46062 -1.16783,0.13025 -14.6138,41.23127 -13.87804,42.42175 0.63274,1.02381 27.10041,1.0609 27.73206,0.0389 z m 68.31265,51.09713 C 349.3,970.96667 349,942.89677 349,908.95578 c 0,-53.32044 0.20164,-61.87824 1.48304,-62.9417 1.13056,-0.93829 8.55761,-1.11556 31.25,-0.74589 26.12634,0.42561 30.79278,0.74679 38.15441,2.62606 28.53079,7.28333 42.29446,26.71552 42.21433,59.60015 -0.0487,20.00155 -5.28192,33.68815 -17.59661,46.02125 -8.41355,8.42613 -17.74968,13.61456 -29.61772,16.45965 -7.36798,1.76629 -11.8009,2.01154 -36.47078,2.01769 -15.44584,0.004 -28.38334,-0.29299 -28.75,-0.65966 z M 400,946.95622 c 3.575,-0.56576 8.82224,-2.15077 11.66054,-3.52222 20.81946,-10.0599 26.13452,-45.24004 9.48344,-62.7704 -7.26531,-7.64895 -17.75577,-11.01865 -32.64398,-10.48574 l -9,0.32214 -0.2623,37.38271 c -0.18778,26.76053 0.0601,37.77122 0.87244,38.75 1.37388,1.65542 10.53246,1.80439 19.88986,0.32351 z m 16.14895,-181.8928 c -15.86284,-4.63369 -24.03165,-7.50167 -25.47342,-8.94344 -2.44443,-2.44444 -3.48685,-10.63789 -3.60438,-28.33055 -0.0482,-7.25111 -0.47489,-11.05737 -1.32115,-11.78426 -0.6875,-0.59052 -7.14528,-4.58242 -14.35062,-8.87089 -7.20534,-4.28847 -16.48989,-10.34805 -20.63233,-13.46575 C 346.62461,690.55084 342.59815,688 341.81937,688 c -0.77878,0 -8.47736,3.15 -17.10795,7 -8.6306,3.85 -16.48387,6.99763 -17.45171,6.99474 C 303.99737,701.98498 300.13605,698.5534 289.26194,686 267.85412,661.28616 267,660.17005 267,656.90944 c 0,-2.00064 2.48631,-7.28726 7.16577,-15.23653 3.94118,-6.6951 8.07868,-13.79499 9.19447,-15.77753 l 2.02869,-3.60463 -7.60406,-15.39537 c -4.18223,-8.46746 -8.88224,-18.92515 -10.44446,-23.23931 -1.56223,-4.31416 -3.51541,-8.20305 -4.34041,-8.64197 -0.825,-0.43892 -8.025,-1.7666 -16,-2.95039 -17.91101,-2.65866 -20.66048,-3.50647 -22.42262,-6.91408 -0.76332,-1.47609 -3.04279,-14.04567 -5.06549,-27.93241 -3.61998,-24.8527 -3.64891,-25.29719 -1.84477,-28.34591 1.41857,-2.39716 5.44957,-4.9366 17.83288,-11.2343 l 16,-8.13701 1.67985,-15.5 c 0.92391,-8.525 2.6308,-20 3.79308,-25.5 l 2.11324,-10 -8.79309,-7.97588 c -18.68549,-16.94892 -19.6231,-18.04519 -19.03506,-22.25604 0.28941,-2.07244 5.18726,-13.86831 10.88409,-26.21303 8.65539,-18.75575 10.86373,-22.74022 13.43537,-24.2413 2.96827,-1.73259 3.69104,-1.72621 20.36591,0.17978 9.50863,1.08687 17.86385,1.64545 18.56715,1.2413 0.7033,-0.40416 4.13864,-4.53148 7.63409,-9.17182 3.49546,-4.64035 10.96787,-13.2515 16.60537,-19.13591 5.6375,-5.8844 10.25,-11.26382 10.25,-11.95425 0,-0.69043 -2.07112,-8.69484 -4.60248,-17.78757 -4.33459,-15.56998 -4.51634,-16.71289 -3.12256,-19.63569 1.12811,-2.36566 6.56086,-6.33871 22.85249,-16.71232 11.7549,-7.48488 22.38505,-13.91559 23.62255,-14.29046 3.6499,-1.10565 5.84024,0.13885 19.12056,10.86388 6.94619,5.60967 13.18715,10.53572 13.86879,10.94679 0.68164,0.41106 6.98164,-1.24781 14,-3.68639 7.01836,-2.43859 17.03565,-5.42922 22.26065,-6.64586 17.07189,-3.97518 14.80455,-1.78384 20.90431,-20.20367 3.42382,-10.33914 6.19393,-17.01071 7.68012,-18.4969 2.3199,-2.3199 2.38082,-2.32466 29.75933,-2.32466 24.81442,0 27.64462,0.17001 29.63287,1.78 1.56006,1.26325 3.7165,6.70396 7.4282,18.74138 l 5.23,16.96138 10.43258,2.29416 c 5.73793,1.26178 17.0955,4.53901 25.23906,7.28273 8.14357,2.74372 15.34357,4.665 16,4.26951 0.65644,-0.39549 6.87678,-5.3088 13.82297,-10.91847 13.28032,-10.72503 15.47066,-11.96953 19.12056,-10.86388 1.2375,0.37487 11.86765,6.80558 23.62255,14.29046 16.29163,10.37361 21.72438,14.34666 22.85249,16.71232 1.39378,2.9228 1.21203,4.06571 -3.12256,19.63569 C 663.07112,310.27801 661,318.28242 661,318.97285 c 0,0.69043 4.6125,6.06985 10.25,11.95425 5.6375,5.88441 13.10991,14.49556 16.60537,19.13591 3.49545,4.64034 6.93079,8.76766 7.63409,9.17182 0.7033,0.40415 9.05852,-0.15443 18.56715,-1.2413 16.67487,-1.90599 17.39764,-1.91237 20.36591,-0.17978 2.57164,1.50108 4.77998,5.48555 13.43537,24.2413 5.69683,12.34472 10.59468,24.14059 10.88409,26.21303 0.58764,4.208 -0.28665,5.23122 -19.01677,22.25604 l -8.77479,7.97588 2.48917,12.56231 c 1.36904,6.90927 3.06769,18.38427 3.77479,25.5 L 738.5,489.5 l 16,8.13701 c 12.38331,6.2977 16.41431,8.83714 17.83288,11.2343 1.80414,3.04872 1.77521,3.49321 -1.84477,28.34591 -2.0227,13.88674 -4.30217,26.45632 -5.06549,27.93241 -1.76214,3.40761 -4.51161,4.25542 -22.42262,6.91408 -7.975,1.18379 -15.175,2.51147 -16,2.95039 -0.825,0.43892 -2.77818,4.32781 -4.34041,8.64197 -1.56222,4.31416 -6.26223,14.77185 -10.44446,23.23931 l -7.60406,15.39537 2.02869,3.60463 c 1.11579,1.98254 5.25329,9.08243 9.19447,15.77753 4.67946,7.94927 7.16577,13.23589 7.16577,15.23653 0,3.26061 -0.85412,4.37672 -22.26194,29.09056 -10.87411,12.5534 -14.73543,15.98498 -17.99777,15.99474 -0.96784,0.003 -8.82111,-3.14474 -17.45171,-6.99474 -8.63059,-3.85 -16.32917,-7 -17.10795,-7 -0.77878,0 -4.80524,2.55084 -8.94768,5.66853 -4.14244,3.1177 -13.42699,9.17728 -20.63233,13.46575 -7.20534,4.28847 -13.66312,8.28037 -14.35062,8.87089 -0.84626,0.72689 -1.27298,4.53315 -1.32115,11.78426 -0.11749,17.68675 -1.16017,25.88633 -3.60231,28.32848 -1.44931,1.4493 -9.63897,4.29786 -25.87869,9.0012 -24.14459,6.99274 -28.66834,7.7911 -31.5819,5.57363 -0.89872,-0.68401 -5.88848,-7.72109 -11.08835,-15.63796 l -9.45431,-14.39431 -26.27494,-0.0802 -26.27493,-0.0802 -9.4984,14.47142 c -5.22411,7.95929 -10.23563,15.03247 -11.1367,15.7182 -2.93963,2.23708 -8.29476,1.29524 -31.98937,-5.6262 z M 517.92156,608.37873 c 38.395,-7.91808 70.4586,-35.23593 84.06906,-71.62598 8.68399,-23.21821 9.22266,-51.93111 1.41256,-75.29424 -13.2483,-39.63095 -47.01508,-68.83231 -88.44736,-76.48887 -8.31443,-1.53649 -30.59721,-1.53649 -38.91164,0 -47.51794,8.78117 -84.26162,45.64237 -92.51202,92.80787 -11.12856,63.61931 34.01964,124.0754 98.71471,132.18479 9.18132,1.15086 26.04525,0.40228 35.67469,-1.58357 z M 698.25025,333.89839 C 676.1749,317.29606 674,315.20812 674,310.61778 c 0,-1.84286 2.25,-9.95161 5,-18.01944 2.75,-8.06782 5,-15.56292 5,-16.65575 0,-1.09284 -1.74655,-5.4645 -3.88123,-9.71479 -4.96749,-9.89061 -8.92914,-22.44306 -10.48695,-33.2278 l -1.22779,-8.5 -6.07659,-4.5 c -3.34212,-2.475 -9.9676,-7.30838 -14.72328,-10.74085 -5.19916,-3.75254 -9.08083,-7.34095 -9.73554,-9 -0.93896,-2.37935 -0.16068,-5.581 5.65404,-23.25915 9.86217,-29.98339 10.20448,-30.80754 13.50485,-32.51423 C 659.2471,143.33798 663.86924,143 677.34675,143 l 17.44607,0 3.21262,-3.75 c 7.93709,-9.26473 20.6295,-18.76182 34.49456,-25.81053 l 8,-4.06703 5.56387,-16.327741 C 753.84252,70.217449 750.66032,72 783.63269,72 l 26.52116,0 2.7201,2.75 c 2.02236,2.044591 3.83537,6.469431 7.0679,17.25 2.39129,7.975 4.74958,15.28958 5.24063,16.25461 0.49105,0.96504 3.60178,3.12209 6.91273,4.79345 12.88891,6.5063 27.28681,17.31604 34.89935,26.20194 l 3.21262,3.75 17.44607,0 c 13.47751,0 18.09965,0.33798 20.31924,1.48577 3.30037,1.70669 3.64268,2.53084 13.50485,32.51423 5.81472,17.67815 6.593,20.8798 5.65404,23.25915 -0.65471,1.65905 -4.53638,5.24746 -9.73554,9 -4.75568,3.43247 -11.38116,8.26585 -14.72328,10.74085 l -6.07659,4.5 -1.22779,8.5 c -1.55781,10.78474 -5.51946,23.33719 -10.48695,33.2278 -2.13468,4.25029 -3.88123,8.62195 -3.88123,9.71479 0,1.09283 2.25,8.58793 5,16.65575 2.75,8.06783 5,16.17658 5,18.01944 0,4.59034 -2.1749,6.67828 -24.25025,23.28061 C 851.25389,345.55245 847.413,348 844.62041,348 c -2.70143,0 -6.34045,-2.13305 -18.14586,-10.63639 l -14.76678,-10.63639 -9.16142,1.63639 C 797.50757,329.26362 788.48671,330 782.5,330 c -5.98671,0 -15.00757,-0.73638 -20.04635,-1.63639 l -9.16142,-1.63639 -14.76678,10.63639 C 726.72004,345.86695 723.08102,348 720.37959,348 c -2.79259,0 -6.63348,-2.44755 -22.12934,-14.10161 z m 97.66155,-59.43931 c 14.50608,-3.4193 27.24844,-12.18139 35.58223,-24.46758 22.24957,-32.80167 7.00155,-77.75644 -30.5443,-90.05188 -10.616,-3.4765 -26.28346,-3.4765 -36.89946,0 -31.11533,10.18958 -48.30961,44.42088 -37.95377,75.56038 9.49117,28.53949 40.53246,45.86148 69.8153,38.95908 z"
     style="fill:#cd142a" />
  <path
     inkscape:connector-curvature="0"
     id="path3228"
     d="M 529.23755,972.95479 C 497.82657,967.33258 479,944.16373 479,911.13013 479,899.3157 481.34479,888.76031 486.13744,879 c 8.32582,-16.95569 24.54569,-29.26611 44.18161,-33.53257 14.3807,-3.12462 47.95079,-0.77039 53.43095,3.74705 0.87718,0.72308 1.25,4.72214 1.25,13.40796 0,13.92539 0.18115,13.67008 -7.39493,10.4226 C 570.85697,870.15246 559.1422,868 550.14749,868 c -19.30374,0 -33.80364,10.06141 -38.88248,26.98038 -2.53148,8.43302 -2.20434,22.77607 0.7189,31.51962 1.94893,5.82935 3.35842,8.005 8.4282,13.00948 7.85598,7.75481 13.5405,9.91288 26.08789,9.904 5.86837,-0.004 10.04388,-0.51684 12,-1.4734 l 3,-1.46703 0,-11.48652 0,-11.48653 -12,-0.5 -12,-0.5 -0.28275,-11.25 -0.28275,-11.25 26.53275,0 26.53275,0 0,32.01261 0,32.01261 -5.75,2.55317 c -10.17302,4.51712 -20.55875,6.53387 -35.75,6.9421 -7.7,0.20692 -16.3681,-0.0476 -19.26245,-0.5657 z m 90.44111,-1.60946 C 619.3054,970.97206 619,942.61105 619,908.32086 l 0,-62.34581 36.25,0.26248 36.25,0.26247 0,11 0,11 -21.5,0.5 -21.5,0.5 0,13.5 0,13.5 20,0.5 20,0.5 0,11 0,11 -20,0.5 -20,0.5 0,13.5 0,13.5 23,0.5 23,0.5 0,11.5 0,11.5 -37.07134,0.26199 c -20.38924,0.1441 -37.37674,-0.0434 -37.75,-0.41666 z M 707,970.12338 c 0,-1.80132 42.11054,-118.5929 44.10109,-122.31227 C 751.9762,846.17595 753.66416,846 768.47617,846 c 12.02687,0 16.62154,0.33364 17.2141,1.25 1.62477,2.51262 44.14854,123.2018 43.67757,123.96384 -0.85326,1.3806 -28.98887,0.94788 -30.15929,-0.46384 -0.56999,-0.6875 -2.70084,-6.425 -4.73522,-12.75 -2.03438,-6.325 -4.15322,-12.0625 -4.70854,-12.75 -1.52398,-1.88671 -42.07886,-1.78143 -43.65136,0.11333 -0.6223,0.74983 -2.74874,6.48733 -4.72541,12.75 -1.97667,6.26267 -4.05272,11.94917 -4.61343,12.63667 -0.72976,0.89477 -5.10538,1.25 -15.39703,1.25 C 707.98175,972 707,971.87186 707,970.12338 z m 74.68436,-49.74321 c 0.52909,-1.3788 -11.90454,-42.93368 -13.24823,-44.27737 -0.25821,-0.25821 -0.87177,-0.0495 -1.36347,0.46387 -1.55439,1.62277 -14.26857,42.48041 -13.68908,43.99054 C 753.8283,921.71613 756.60571,922 767.5,922 c 11.57923,0 13.65368,-0.2369 14.18436,-1.61983 z m 68.98231,50.95316 C 850.3,970.96667 850,942.61667 850,908.33333 L 850,846 l 28.25,0.0174 c 30.62213,0.0188 37.52843,0.80972 46.42122,5.31603 11.62453,5.8906 16.94045,16.14052 16.11656,31.07525 -0.7302,13.23627 -7.06032,22.83093 -19.27294,29.21224 -3.03055,1.58352 -5.51116,3.18386 -5.51246,3.55632 -10e-4,0.37245 1.48684,1.94745 3.30701,3.5 1.82016,1.55254 5.13741,5.0728 7.37166,7.8228 6.22808,7.66576 28.54179,43.33043 27.83019,44.48182 -0.7248,1.17274 -29.36577,1.40527 -31.14652,0.25287 -0.6244,-0.40408 -6.19226,-9.04029 -12.37302,-19.19158 -12.94715,-21.26442 -14.4926,-23.48607 -17.88297,-25.70752 -3.19745,-2.09505 -8.9752,-3.40121 -11.85873,-2.68086 l -2.25,0.56209 0,22.69159 c 0,16.31568 -0.33718,23.02877 -1.2,23.89159 -1.28783,1.28783 -25.89516,1.77151 -27.13333,0.53333 z m 50.41375,-71.95416 c 1.76414,-1.03354 4.59709,-3.59836 6.29543,-5.6996 2.71874,-3.36369 3.09007,-4.57992 3.10603,-10.17325 0.0329,-11.54636 -5.53198,-15.69068 -21.33228,-15.88664 L 879.5,867.5 l -0.27646,15.95986 c -0.15205,8.77792 -0.0299,16.60229 0.27138,17.38749 0.83097,2.16547 17.29464,1.04567 21.5855,-1.46818 z M 424,766.53689 c -29.998,-8.80963 -31.92784,-9.49712 -33.53221,-11.9457 -1.14557,-1.74837 -1.66912,-6.26236 -2.05505,-17.71862 -0.76464,-22.69786 -0.16868,-21.00902 -9.15374,-25.94031 -10.09259,-5.53913 -20.10204,-11.97471 -28.89133,-18.5757 C 346.44489,689.41045 342.59815,687 341.81937,687 c -0.77878,0 -8.47736,3.15 -17.10795,7 -8.6306,3.85 -16.48387,6.98405 -17.45171,6.96456 -3.36816,-0.0678 -6.05043,-2.5611 -19.86411,-18.46456 C 267.7492,659.88145 268,660.21317 268,656.84618 c 0,-1.92218 2.57503,-7.37472 7.16577,-15.17327 3.94118,-6.6951 8.07262,-13.78392 9.18099,-15.75293 l 2.01521,-3.58002 -7.15298,-14.41998 c -3.93414,-7.93099 -8.7027,-18.46463 -10.59679,-23.4081 -1.8941,-4.94347 -4.2692,-9.503 -5.27801,-10.13229 -1.0088,-0.62929 -8.58419,-2.11799 -16.83419,-3.30821 -16.44086,-2.37191 -19.49249,-3.22846 -21.19088,-5.948 -0.62449,-0.99997 -2.80489,-13.13491 -4.84534,-26.96655 -3.20007,-21.69238 -3.53495,-25.57079 -2.43685,-28.22184 1.07777,-2.60197 3.67356,-4.27544 16.92191,-10.90937 8.60687,-4.30978 16.11658,-8.44113 16.68823,-9.18079 0.57165,-0.73965 1.56919,-7.19483 2.21675,-14.34483 0.64756,-7.15 2.27063,-18.37166 3.60681,-24.93702 1.33619,-6.56536 2.11666,-12.45048 1.7344,-13.07805 -0.38227,-0.62757 -4.51685,-4.48091 -9.18797,-8.56298 C 234.47354,415.34727 232,412.65741 232,409.34005 c 0,-1.72501 4.51755,-12.87314 10.5,-25.91123 5.775,-12.58598 10.5,-22.99472 10.5,-23.13053 0,-0.13581 1.29847,-0.9184 2.88549,-1.73908 2.58174,-1.33506 4.69638,-1.29197 20.08757,0.40934 9.46114,1.04581 17.79328,1.67461 18.51588,1.39732 0.72259,-0.27728 4.37007,-4.58145 8.10552,-9.56482 3.73544,-4.98337 11.5005,-13.97468 17.2557,-19.98069 l 10.46399,-10.92002 -1.03013,-4.20017 c -0.56657,-2.31009 -2.70106,-10.20079 -4.74331,-17.53487 -3.16643,-11.37124 -3.54196,-13.74808 -2.55033,-16.14207 0.86087,-2.07834 6.51301,-6.23803 21.76579,-16.01854 23.59165,-15.12764 24.24151,-15.47307 27.54767,-14.64328 1.34823,0.33838 8.60979,5.5705 16.1368,11.62692 7.52701,6.05642 13.93233,11.01167 14.23404,11.01167 0.30172,0 4.88585,-1.62551 10.18695,-3.61225 5.3011,-1.98674 16.59014,-5.36101 25.08675,-7.49838 8.49661,-2.13737 15.75996,-4.22436 16.14077,-4.63775 0.38082,-0.41339 2.10104,-5.30299 3.8227,-10.86578 4.40207,-14.22334 7.83162,-22.67762 9.7909,-24.13584 2.06939,-1.54018 54.39412,-1.80371 57.22584,-0.28822 2.22174,1.18904 2.955,3.03036 8.17886,20.53822 2.29747,7.7 4.47389,14.33823 4.8365,14.75162 0.36261,0.41339 7.61106,2.50038 16.10767,4.63775 8.49661,2.13737 19.78565,5.51164 25.08675,7.49838 5.3011,1.98674 9.88523,3.61225 10.18695,3.61225 0.30171,0 6.70703,-4.95525 14.23404,-11.01167 7.52701,-6.05642 14.78857,-11.28854 16.1368,-11.62692 3.30616,-0.82979 3.95602,-0.48436 27.54767,14.64328 15.25278,9.78051 20.90492,13.9402 21.76579,16.01854 0.99163,2.39399 0.6161,4.77083 -2.55033,16.14207 -2.04225,7.33408 -4.17674,15.22478 -4.74331,17.53487 l -1.03013,4.20017 10.46399,10.92002 c 5.7552,6.00601 13.52026,14.99732 17.2557,19.98069 3.73545,4.98337 7.38293,9.28754 8.10552,9.56482 0.7226,0.27729 9.05474,-0.35151 18.51588,-1.39732 15.39119,-1.70131 17.50583,-1.7444 20.08757,-0.40934 1.58702,0.82068 2.88549,1.60327 2.88549,1.73908 0,0.13581 4.725,10.54455 10.5,23.13053 5.98245,13.03809 10.5,24.18622 10.5,25.91123 0,3.31736 -2.47354,6.00722 -18.00706,19.5819 -4.67112,4.08207 -8.8057,7.93541 -9.18797,8.56298 -0.38226,0.62757 0.39821,6.51269 1.7344,13.07805 1.33618,6.56536 2.95925,17.78702 3.60681,24.93702 0.64756,7.15 1.6451,13.60518 2.21675,14.34483 0.57165,0.73966 8.08136,4.87101 16.68823,9.18079 13.24835,6.63393 15.84414,8.3074 16.92191,10.90937 1.0981,2.65105 0.76322,6.52946 -2.43685,28.22184 -2.04045,13.83164 -4.22085,25.96658 -4.84534,26.96655 -1.69839,2.71954 -4.75002,3.57609 -21.19088,5.948 -8.25,1.19022 -15.82539,2.67892 -16.83419,3.30821 -1.00881,0.62929 -3.38391,5.18882 -5.27801,10.13229 -1.89409,4.94347 -6.66265,15.47711 -10.59679,23.4081 l -7.15298,14.41998 2.01521,3.58002 c 1.10837,1.96901 5.23981,9.05783 9.18099,15.75293 4.59074,7.79855 7.16577,13.25109 7.16577,15.17327 0,3.36699 0.2508,3.03527 -19.3956,25.65382 -13.81368,15.90346 -16.49595,18.39674 -19.86411,18.46456 -0.96784,0.0195 -8.82111,-3.11456 -17.45171,-6.96456 -8.63059,-3.85 -16.32917,-7 -17.10795,-7 -0.77878,0 -4.62552,2.41045 -8.5483,5.35656 -8.78929,6.60099 -18.79874,13.03657 -28.89133,18.5757 -8.98122,4.92919 -8.39023,3.26192 -9.14833,25.80854 -0.51892,15.43317 -1.18093,18.43329 -4.454,20.18499 C 593.4656,758.89156 550.14293,771 546.78271,771 542.45123,771 541.8316,770.32395 530.5,753.23443 l -9,-13.57316 -26.5,0 -26.5,0 -9,13.57316 c -4.95,7.46524 -9.85724,14.51645 -10.90499,15.66936 -2.77952,3.05853 -7.7492,2.58028 -24.59501,-2.3669 z M 516.5,609.3638 c 48.38656,-9.10156 85.65943,-48.13692 92.42758,-96.79813 5.62227,-40.42258 -11.63111,-82.10861 -44.11456,-106.58563 -22.2844,-16.7918 -49.88525,-24.78626 -78.8508,-22.83877 -26.00396,1.74836 -55.77572,15.92854 -73.39219,34.95643 -32.64833,35.26409 -40.65848,84.77574 -20.62989,127.51563 22.08568,47.12961 73.37301,73.37876 124.55986,63.75047 z"
     style="fill:#030303" />
</svg>
