<?xml version="1.0" encoding="UTF-8" ?>
<!DOCTYPE svg PUBLIC "-//W3C//DTD SVG 1.1//EN" "http://www.w3.org/Graphics/SVG/1.1/DTD/svg11.dtd">
<svg width="1195pt" height="717pt" viewBox="0 0 1195 717" version="1.1" xmlns="http://www.w3.org/2000/svg">
<g id="#ff0000ff">
<path fill="#ff0000" opacity="1.00" d=" M 24.59 14.75 C 29.01 9.76 33.74 5.00 38.75 0.60 C 56.03 17.89 73.27 35.21 90.61 52.42 C 91.58 53.75 92.70 52.08 93.45 51.45 C 110.35 34.48 127.34 17.58 144.24 0.61 C 149.26 5.00 153.99 9.76 158.41 14.75 C 141.12 32.03 123.80 49.28 106.57 66.61 C 105.25 67.58 106.93 68.70 107.55 69.45 C 124.54 86.35 141.43 103.35 158.41 120.25 C 154.01 125.26 149.25 130.00 144.25 134.42 C 126.98 117.12 109.73 99.81 92.39 82.58 C 91.42 81.26 90.30 82.92 89.55 83.55 C 72.65 100.54 55.65 117.43 38.75 134.42 C 33.75 130.00 28.99 125.26 24.59 120.24 C 41.58 103.35 58.46 86.34 75.45 69.45 C 76.09 68.70 77.74 67.59 76.42 66.61 C 59.20 49.27 41.88 32.03 24.59 14.75 Z" />
<path fill="#ff0000" opacity="1.00" d=" M 606.59 16.75 C 611.00 11.75 615.74 7.00 620.75 2.60 C 637.66 19.58 654.64 36.48 671.55 53.45 C 672.29 54.07 673.41 55.75 674.39 54.43 C 691.73 37.21 708.97 19.89 726.25 2.61 C 731.26 7.00 735.99 11.76 740.41 16.75 C 723.43 33.66 706.54 50.65 689.55 67.55 C 688.91 68.30 687.24 69.42 688.58 70.39 C 705.81 87.73 723.12 104.98 740.41 122.25 C 736.00 127.25 731.25 132.01 726.25 136.41 C 708.78 118.98 691.44 101.40 673.84 84.12 C 673.53 84.24 672.91 84.47 672.61 84.58 C 655.27 101.81 638.02 119.12 620.75 136.41 C 615.75 132.00 610.99 127.26 606.59 122.25 C 623.57 105.35 640.46 88.35 657.45 71.45 C 658.07 70.70 659.74 69.59 658.42 68.61 C 641.20 51.27 623.88 34.03 606.59 16.75 Z" />
<path fill="#ff0000" opacity="1.00" d=" M 0.59 232.75 C 5.00 227.75 9.74 223.00 14.75 218.60 C 32.03 235.89 49.27 253.21 66.61 270.42 C 67.58 271.75 68.70 270.07 69.45 269.45 C 86.36 252.48 103.34 235.58 120.25 218.61 C 125.26 223.00 129.99 227.76 134.41 232.75 C 117.43 249.66 100.54 266.65 83.55 283.55 C 82.92 284.30 81.25 285.41 82.58 286.39 C 99.80 303.72 117.12 320.98 134.42 338.25 C 130.00 343.25 125.26 348.01 120.25 352.41 C 102.98 335.12 85.72 317.81 68.39 300.58 C 67.42 299.25 66.30 300.91 65.56 301.55 C 48.65 318.54 31.65 335.43 14.75 352.42 C 9.75 348.00 5.00 343.25 0.58 338.25 C 17.57 321.35 34.46 304.35 51.45 287.45 C 52.08 286.69 53.74 285.58 52.42 284.61 C 35.20 267.27 17.88 250.03 0.59 232.75 Z" />
<path fill="#ff0000" opacity="1.00" d=" M 478.59 382.75 C 483.00 377.76 487.74 373.00 492.75 368.61 C 509.66 385.58 526.64 402.47 543.55 419.44 C 544.29 420.07 545.41 421.75 546.39 420.42 C 563.73 403.21 580.97 385.89 598.25 368.60 C 603.26 373.00 607.99 377.76 612.41 382.75 C 595.43 399.66 578.54 416.65 561.55 433.55 C 560.93 434.29 559.24 435.42 560.57 436.39 C 577.80 453.72 595.11 470.98 612.42 488.25 C 608.00 493.25 603.26 498.01 598.25 502.41 C 581.35 485.43 564.34 468.54 547.44 451.55 C 546.70 450.94 545.57 449.25 544.62 450.57 C 527.29 467.80 510.02 485.11 492.75 502.41 C 487.74 498.00 483.00 493.25 478.58 488.25 C 495.57 471.35 512.46 454.35 529.45 437.45 C 530.07 436.69 531.74 435.57 530.43 434.61 C 513.20 417.28 495.88 400.02 478.59 382.75 Z" />
</g>
<g id="#0000ffff">
<path fill="#0000ff" opacity="1.00" d=" M 653.06 174.04 C 657.62 169.17 664.61 168.32 670.16 165.08 C 675.71 164.92 681.28 164.92 686.83 165.08 C 691.92 168.21 698.48 168.77 702.77 173.23 C 705.67 176.32 708.93 179.08 711.62 182.37 C 714.49 187.28 716.14 192.78 718.33 197.99 C 875.88 198.02 1033.44 197.99 1190.99 198.00 C 1191.00 201.67 1191.00 205.33 1190.99 209.00 C 1033.37 209.01 875.74 209.00 718.11 209.00 C 718.07 210.28 718.00 211.55 717.89 212.83 C 715.19 217.40 714.38 222.88 711.20 227.20 C 708.69 230.02 705.87 232.53 703.27 235.27 C 699.84 239.03 694.76 240.50 690.12 242.17 C 684.30 245.29 677.47 243.72 671.16 243.88 C 665.57 241.52 659.55 240.01 654.50 236.53 C 651.98 233.07 648.62 230.38 645.80 227.20 C 642.57 222.57 641.37 216.95 639.12 211.85 C 638.88 206.63 638.93 201.39 639.08 196.17 C 641.84 191.62 642.60 186.12 645.80 181.80 C 648.14 179.14 650.91 176.88 653.06 174.04 M 672.38 173.36 C 668.90 174.31 665.06 174.79 662.27 177.26 C 660.80 178.56 659.04 179.43 657.37 180.40 C 648.25 188.53 644.62 202.13 648.20 213.82 C 649.56 217.81 650.91 221.94 654.11 224.87 C 655.62 227.78 658.44 229.27 661.14 230.86 C 664.37 234.04 668.96 234.80 673.19 235.82 C 679.89 236.57 686.88 235.94 693.01 232.98 C 695.15 231.43 697.22 229.77 699.63 228.60 C 711.26 218.42 713.35 199.80 705.19 186.82 C 702.53 184.08 700.86 180.29 697.04 178.93 C 690.38 173.11 680.82 172.15 672.38 173.36 Z" />
</g>
<g id="#00ffffff">
<path fill="#00ffff" opacity="1.00" d=" M 732.05 250.03 C 736.61 245.14 743.67 244.38 749.15 241.04 C 754.71 240.95 760.28 240.95 765.84 241.04 C 770.49 244.05 776.43 244.60 780.74 248.25 C 783.76 251.23 786.77 254.23 789.74 257.26 C 793.39 261.56 793.95 267.51 796.96 272.16 C 797.07 274.10 797.00 276.05 797.01 278.00 C 889.67 278.00 982.34 278.00 1075.00 278.00 C 1075.00 281.67 1075.00 285.33 1075.00 289.00 C 982.40 289.00 889.80 289.00 797.21 289.00 C 793.56 293.22 793.61 299.55 789.75 303.74 C 786.58 306.91 783.47 310.15 780.21 313.21 C 776.84 315.49 772.97 316.91 769.12 318.15 C 767.08 318.78 765.27 320.28 763.04 320.02 C 758.73 319.95 754.43 320.13 750.14 319.92 C 744.57 317.49 738.59 315.98 733.47 312.58 C 731.06 309.02 727.60 306.41 724.79 303.21 C 722.16 299.44 720.89 294.97 719.29 290.72 C 717.12 287.17 718.26 282.92 718.00 279.00 C 718.19 275.79 717.11 272.13 719.57 269.54 C 721.02 265.51 722.33 261.34 724.79 257.79 C 727.12 255.12 729.96 252.92 732.05 250.03 M 751.38 249.35 C 747.69 250.40 743.53 250.87 740.71 253.72 C 738.81 255.57 735.72 255.91 734.39 258.39 C 733.39 260.01 732.06 261.39 730.79 262.80 C 723.48 274.74 724.18 291.67 733.98 302.01 C 735.75 305.36 739.96 305.87 742.37 308.64 C 751.69 313.31 763.31 313.31 772.63 308.63 C 774.66 306.50 777.48 305.54 779.74 303.76 C 781.22 301.60 782.88 299.58 784.66 297.66 C 787.20 292.13 789.60 286.22 789.04 279.99 C 789.44 274.12 787.00 268.58 784.66 263.35 C 782.88 261.42 781.22 259.40 779.74 257.24 C 777.48 255.46 774.65 254.49 772.63 252.36 C 766.15 248.99 758.52 248.28 751.38 249.35 Z" />
</g>
<g id="#ffff00ff">
<path fill="#ffff00" opacity="1.00" d=" M 577.55 250.55 C 582.21 246.18 588.72 245.03 594.24 242.16 C 599.72 241.86 605.27 241.86 610.76 242.16 C 614.39 244.06 618.37 245.14 622.04 246.96 C 626.47 248.92 629.25 253.08 632.77 256.23 C 637.86 260.59 638.83 267.57 641.84 273.23 C 642.14 278.73 642.14 284.27 641.84 289.77 C 638.90 295.21 638.00 301.92 633.27 306.27 C 628.94 310.39 625.18 315.55 619.14 317.25 C 623.85 328.72 630.04 339.49 635.27 350.71 C 636.81 354.75 638.66 358.67 640.85 362.41 C 640.92 361.72 641.08 360.36 641.16 359.67 C 642.33 363.22 643.27 366.85 644.69 370.31 C 646.47 374.62 649.51 378.27 651.14 382.66 C 655.56 393.35 661.79 403.21 666.03 413.98 C 669.32 420.69 672.62 427.40 676.10 434.01 C 849.07 433.99 1022.03 434.00 1195.00 434.00 L 1195.00 445.00 C 1020.68 445.00 846.36 445.00 672.04 445.00 C 672.01 443.62 671.99 442.25 671.98 440.89 C 670.46 441.32 668.96 441.78 667.45 442.18 C 663.40 433.46 658.90 424.96 654.66 416.34 C 651.68 410.81 649.73 404.81 646.67 399.33 C 639.00 384.00 631.34 368.67 623.67 353.34 C 619.02 342.27 613.30 331.69 607.89 320.99 C 603.66 320.92 599.41 321.24 595.20 320.84 C 589.57 318.60 583.55 317.02 578.55 313.49 C 575.88 310.15 572.64 307.36 569.81 304.18 C 566.60 299.54 565.26 293.97 563.16 288.80 C 562.85 283.63 562.85 278.40 563.16 273.23 C 565.63 268.55 566.70 263.18 569.81 258.82 C 572.32 256.00 575.15 253.47 577.55 250.55 M 596.37 250.35 C 592.69 251.40 588.53 251.87 585.71 254.72 C 583.81 256.57 580.72 256.91 579.39 259.39 C 578.39 261.01 577.06 262.39 575.79 263.80 C 568.48 275.74 569.18 292.67 578.98 303.01 C 580.75 306.36 584.95 306.87 587.37 309.63 C 596.68 314.31 608.31 314.31 617.63 309.63 C 619.66 307.50 622.48 306.54 624.74 304.76 C 626.22 302.60 627.88 300.58 629.66 298.66 C 632.21 293.13 634.60 287.21 634.04 280.99 C 634.44 275.12 632.00 269.58 629.66 264.35 C 627.88 262.42 626.22 260.40 624.74 258.24 C 622.48 256.46 619.66 255.49 617.63 253.37 C 611.15 249.99 603.52 249.28 596.37 250.35 Z" />
</g>
<g id="#ff00ffff">
<path fill="#ff00ff" opacity="1.00" d=" M 655.56 325.55 C 660.21 321.18 666.72 320.03 672.24 317.16 C 677.72 316.86 683.27 316.86 688.76 317.16 C 692.17 318.94 695.88 320.01 699.36 321.63 C 704.33 323.64 707.40 328.25 711.27 331.72 C 715.66 335.67 716.63 341.76 719.20 346.81 C 720.47 348.98 719.87 351.61 720.06 354.00 C 838.37 354.00 956.69 354.00 1075.00 354.00 C 1075.00 357.66 1075.00 361.33 1075.00 365.00 C 956.71 364.98 838.41 365.03 720.12 364.97 C 716.71 369.37 716.50 375.49 712.74 379.72 C 709.80 382.79 706.79 385.79 703.72 388.73 C 699.54 392.09 694.15 393.24 689.31 395.31 C 686.70 396.45 683.76 395.88 681.00 396.03 C 677.65 395.86 674.08 396.59 670.97 395.03 C 666.07 393.09 660.87 391.62 656.55 388.49 C 654.82 386.48 653.04 384.51 651.14 382.66 C 649.51 378.27 646.47 374.62 644.69 370.31 C 643.27 366.85 642.33 363.22 641.16 359.67 C 640.99 355.87 640.75 352.03 641.16 348.24 C 643.63 343.55 644.70 338.18 647.81 333.82 C 650.32 331.00 653.15 328.47 655.56 325.55 M 666.65 327.66 C 664.44 328.67 662.96 330.79 660.66 331.66 C 657.40 332.96 656.35 336.65 653.79 338.80 C 646.48 350.73 647.18 367.67 656.98 378.00 C 658.75 381.36 662.95 381.87 665.37 384.63 C 674.68 389.31 686.31 389.31 695.63 384.63 C 698.51 381.70 703.06 380.86 704.86 376.85 C 708.33 374.05 709.01 369.61 711.11 365.92 C 710.83 365.51 710.26 364.67 709.98 364.25 C 710.48 363.87 711.49 363.11 711.99 362.73 C 711.91 358.88 712.22 355.02 711.85 351.18 C 710.43 345.57 708.77 339.67 704.43 335.59 C 702.70 331.84 698.26 331.24 695.63 328.37 C 686.72 323.83 675.82 323.83 666.65 327.66 Z" />
</g>
<g id="#014e004e">
<path fill="#014e00" opacity="0.31" d=" M 191.39 336.46 C 197.72 333.95 204.60 333.57 211.05 331.45 C 220.31 330.25 229.77 330.37 239.06 331.29 C 243.88 332.48 248.68 333.76 253.59 334.58 C 262.35 337.30 271.24 340.12 279.10 344.96 C 298.13 355.99 313.67 372.79 323.60 392.38 C 326.77 400.48 330.33 408.58 331.54 417.27 C 332.13 420.87 333.77 424.25 333.93 427.94 C 334.54 435.62 334.53 443.37 333.94 451.06 C 333.78 454.75 332.15 458.13 331.54 461.73 C 330.25 470.65 326.61 479.00 323.29 487.30 C 314.87 503.31 302.97 517.68 288.13 528.11 C 276.04 537.19 261.70 542.89 246.95 545.86 C 236.97 549.08 226.31 548.45 215.98 548.11 C 210.73 548.12 205.95 545.72 200.80 545.11 C 193.03 543.64 185.68 540.51 178.38 537.58 C 167.49 531.73 156.66 524.94 148.55 515.47 L 149.16 514.80 C 158.20 522.99 167.84 530.80 179.03 535.86 C 215.04 553.37 261.06 548.65 292.14 523.14 C 321.47 500.34 336.92 461.28 331.27 424.57 C 326.75 388.51 301.94 355.69 268.44 341.58 C 233.88 326.11 191.10 330.99 161.05 354.09 C 147.43 364.53 135.91 378.04 128.83 393.73 C 114.87 422.89 115.33 458.42 129.77 487.31 C 133.01 494.69 138.35 500.82 142.39 507.72 C 142.12 508.00 141.57 508.55 141.30 508.82 C 136.58 500.91 130.34 493.86 126.79 485.25 C 123.86 477.57 120.72 469.90 119.34 461.76 C 116.00 451.52 116.47 440.59 116.92 429.98 C 117.01 424.17 119.60 418.83 120.21 413.09 C 123.67 399.96 128.78 387.02 137.30 376.31 C 146.88 362.96 159.51 351.94 173.74 343.80 C 179.25 340.55 185.42 338.69 191.39 336.46 Z" />
</g>
<g id="#04bc00bc">
<path fill="#04bc00" opacity="0.74" d=" M 161.05 354.09 C 191.10 330.99 233.88 326.11 268.44 341.58 C 301.94 355.69 326.75 388.51 331.27 424.57 C 336.92 461.28 321.47 500.34 292.14 523.14 C 261.06 548.65 215.04 553.37 179.03 535.86 C 167.84 530.80 158.20 522.99 149.16 514.80 L 149.73 514.19 C 155.67 517.33 159.75 523.01 165.57 526.38 C 176.26 534.26 188.97 538.61 201.64 542.13 C 207.47 543.27 213.44 543.40 219.30 544.41 C 227.59 545.71 235.81 543.55 244.05 542.93 C 250.88 542.34 257.27 539.67 263.73 537.58 C 273.55 534.34 282.46 528.88 290.60 522.58 C 303.14 512.64 313.74 500.02 320.41 485.42 C 323.43 479.07 325.48 472.32 327.53 465.62 C 329.46 459.47 328.85 452.93 329.75 446.61 C 330.41 442.18 330.53 437.67 329.85 433.23 C 329.02 427.65 329.33 421.95 328.30 416.40 C 324.21 400.46 317.77 384.71 306.77 372.24 C 298.44 361.84 287.79 353.46 276.24 346.89 C 268.76 342.71 260.48 340.31 252.37 337.69 C 245.74 335.39 238.61 336.21 231.77 335.16 C 227.33 334.46 222.82 334.61 218.39 335.26 C 212.07 336.17 205.53 335.49 199.39 337.47 C 190.59 340.28 181.56 342.82 173.60 347.65 C 152.00 359.83 134.49 379.77 126.64 403.43 C 124.61 409.81 122.03 416.17 121.97 422.97 C 121.87 430.58 119.80 438.16 121.15 445.77 C 122.17 452.36 121.47 459.19 123.46 465.62 C 126.76 476.56 130.44 487.61 136.97 497.11 C 138.92 500.07 141.40 502.72 142.86 505.99 C 142.74 506.42 142.51 507.29 142.39 507.72 C 138.35 500.82 133.01 494.69 129.77 487.31 C 115.33 458.42 114.87 422.89 128.83 393.73 C 135.91 378.04 147.43 364.53 161.05 354.09 Z" />
</g>
<g id="#06ff00ff">
<path fill="#06ff00" opacity="1.00" d=" M 218.39 335.26 C 222.82 334.61 227.33 334.46 231.77 335.16 C 238.61 336.21 245.74 335.39 252.37 337.69 C 260.48 340.31 268.76 342.71 276.24 346.89 C 287.79 353.46 298.44 361.84 306.77 372.24 C 317.77 384.71 324.21 400.46 328.30 416.40 C 329.33 421.95 329.02 427.65 329.85 433.23 C 330.53 437.67 330.41 442.18 329.75 446.61 C 328.85 452.93 329.46 459.47 327.53 465.62 C 325.48 472.32 323.43 479.07 320.41 485.42 C 313.74 500.02 303.14 512.64 290.60 522.58 C 282.46 528.88 273.55 534.34 263.73 537.58 C 257.27 539.67 250.88 542.34 244.05 542.93 C 235.81 543.55 227.59 545.71 219.30 544.41 C 213.44 543.40 207.47 543.27 201.64 542.13 C 188.97 538.61 176.26 534.26 165.57 526.38 C 159.75 523.01 155.67 517.33 149.73 514.19 L 149.16 514.80 L 148.55 515.47 C 104.74 559.35 60.92 603.22 17.00 647.00 C 14.64 644.69 12.30 642.36 10.00 639.99 C 37.08 612.74 64.32 585.65 91.46 558.46 C 108.11 541.95 124.49 525.17 141.30 508.82 C 141.57 508.55 142.12 508.00 142.39 507.72 C 142.51 507.29 142.74 506.42 142.86 505.99 C 141.40 502.72 138.92 500.07 136.97 497.11 C 130.44 487.61 126.76 476.56 123.46 465.62 C 121.47 459.19 122.17 452.36 121.15 445.77 C 119.80 438.16 121.87 430.58 121.97 422.97 C 122.03 416.17 124.61 409.81 126.64 403.43 C 134.49 379.77 152.00 359.83 173.60 347.65 C 181.56 342.82 190.59 340.28 199.39 337.47 C 205.53 335.49 212.07 336.17 218.39 335.26 M 218.39 345.48 C 213.69 346.52 208.97 347.46 204.25 348.34 C 189.99 352.12 176.21 358.33 164.84 367.85 C 159.82 371.12 155.94 375.69 152.56 380.57 C 141.75 394.05 135.30 410.66 132.53 427.61 C 131.08 433.82 130.16 440.29 131.48 446.61 C 132.49 451.32 133.54 456.02 134.40 460.75 C 137.46 472.25 141.91 483.47 148.73 493.28 C 153.41 499.79 157.98 506.69 164.84 511.14 C 178.24 522.26 194.83 529.23 211.94 532.10 C 216.23 533.09 220.55 534.17 224.99 534.20 C 231.21 534.27 237.16 532.27 243.23 531.30 C 250.14 530.25 256.57 527.44 263.11 525.13 C 273.67 520.77 283.05 514.05 291.71 506.69 C 295.43 503.01 298.22 498.53 301.43 494.42 C 312.35 479.44 317.29 461.12 319.99 443.05 C 320.95 435.18 318.17 427.61 317.01 419.93 C 313.81 407.41 309.10 395.09 301.44 384.58 C 297.10 378.97 293.34 372.67 287.29 368.70 C 277.97 361.04 267.39 354.84 255.85 351.21 C 248.95 348.21 241.40 347.64 234.18 345.78 C 229.00 344.64 223.60 344.48 218.39 345.48 Z" />
<path fill="#06ff00" opacity="1.00" d=" M 404.06 539.02 C 406.30 536.62 408.62 534.30 411.02 532.05 C 470.44 591.26 529.72 650.62 588.99 709.98 C 586.73 712.24 584.45 714.50 582.44 717.00 L 581.65 717.00 C 576.63 711.47 571.19 706.36 565.96 701.04 C 512.01 647.02 457.91 593.14 404.06 539.02 Z" />
</g>
<g id="#03a800a8">
<path fill="#03a800" opacity="0.66" d=" M 218.39 345.48 C 223.60 344.48 229.00 344.64 234.18 345.78 C 241.40 347.64 248.95 348.21 255.85 351.21 C 267.39 354.84 277.97 361.04 287.29 368.70 C 293.34 372.67 297.10 378.97 301.44 384.58 C 309.10 395.09 313.81 407.41 317.01 419.93 C 318.17 427.61 320.95 435.18 319.99 443.05 C 317.29 461.12 312.35 479.44 301.43 494.42 C 298.22 498.53 295.43 503.01 291.71 506.69 C 283.05 514.05 273.67 520.77 263.11 525.13 C 256.57 527.44 250.14 530.25 243.23 531.30 C 237.16 532.27 231.21 534.27 224.99 534.20 C 220.55 534.17 216.23 533.09 211.94 532.10 C 194.83 529.23 178.24 522.26 164.84 511.14 C 157.98 506.69 153.41 499.79 148.73 493.28 C 141.91 483.47 137.46 472.25 134.40 460.75 C 133.54 456.02 132.49 451.32 131.48 446.61 C 130.16 440.29 131.08 433.82 132.53 427.61 C 135.30 410.66 141.75 394.05 152.56 380.57 C 155.94 375.69 159.82 371.12 164.84 367.85 C 176.21 358.33 189.99 352.12 204.25 348.34 C 208.97 347.46 213.69 346.52 218.39 345.48 M 218.37 347.55 C 197.07 350.21 176.38 358.98 160.40 373.45 C 148.92 385.44 141.29 400.61 136.56 416.41 C 133.82 427.93 131.69 440.00 134.37 451.76 C 135.65 462.63 139.90 472.79 144.36 482.68 C 149.93 492.89 156.32 503.17 165.89 510.10 C 173.27 515.79 181.31 520.74 190.08 523.96 C 199.72 528.67 210.43 530.39 220.96 531.75 C 227.14 532.55 233.33 531.37 239.40 530.35 C 246.81 529.17 254.15 527.22 260.93 523.96 C 271.91 519.86 281.82 513.26 290.59 505.55 C 297.36 498.42 302.88 490.13 307.27 481.35 C 310.57 473.38 314.34 465.48 315.74 456.89 C 316.89 449.65 318.72 442.33 317.76 434.96 C 316.40 424.92 314.87 414.75 310.54 405.49 C 306.35 394.00 299.66 383.52 291.56 374.40 C 278.33 361.84 261.41 353.66 243.76 349.44 C 235.41 347.96 226.87 346.01 218.37 347.55 Z" />
</g>
<g id="#013a003a">
<path fill="#013a00" opacity="0.23" d=" M 218.37 347.55 C 226.87 346.01 235.41 347.96 243.76 349.44 C 261.41 353.66 278.33 361.84 291.56 374.40 C 299.66 383.52 306.35 394.00 310.54 405.49 C 314.87 414.75 316.40 424.92 317.76 434.96 C 318.72 442.33 316.89 449.65 315.74 456.89 C 314.34 465.48 310.57 473.38 307.27 481.35 C 302.88 490.13 297.36 498.42 290.59 505.55 C 281.82 513.26 271.91 519.86 260.93 523.96 C 254.15 527.22 246.81 529.17 239.40 530.35 C 233.33 531.37 227.14 532.55 220.96 531.75 C 210.43 530.39 199.72 528.67 190.08 523.96 C 181.31 520.74 173.27 515.79 165.89 510.10 C 156.32 503.17 149.93 492.89 144.36 482.68 C 139.90 472.79 135.65 462.63 134.37 451.76 C 131.69 440.00 133.82 427.93 136.56 416.41 C 141.29 400.61 148.92 385.44 160.40 373.45 C 176.38 358.98 197.07 350.21 218.37 347.55 M 220.46 349.54 C 217.04 349.96 213.59 350.04 210.18 350.40 C 191.08 354.74 172.07 362.95 158.68 377.70 C 146.76 390.84 140.01 407.88 136.31 425.01 C 136.37 431.55 133.85 438.04 135.50 444.53 C 136.36 449.76 135.73 455.24 137.82 460.24 C 142.20 477.23 150.13 493.80 163.19 505.83 C 174.64 516.35 189.14 523.02 204.06 526.99 C 209.21 529.38 214.97 528.67 220.45 529.46 C 223.80 529.88 227.19 529.86 230.55 529.46 C 235.78 528.76 241.24 529.21 246.23 527.17 C 257.70 524.04 269.12 519.82 278.82 512.80 C 296.89 501.27 307.73 481.25 312.96 460.94 C 315.55 454.21 315.00 446.88 315.45 439.81 C 315.04 432.54 315.60 424.99 312.96 418.06 C 308.56 401.09 300.44 384.59 287.31 372.67 C 274.29 361.04 257.68 354.23 240.82 350.40 C 234.04 350.10 227.25 348.63 220.46 349.54 Z" />
</g>
<g id="#06fe00fe">
<path fill="#06fe00" opacity="1.00" d=" M 375.44 468.70 C 385.48 467.19 396.08 469.67 404.23 475.77 C 413.17 482.27 418.95 492.91 419.62 503.93 C 420.49 515.49 415.68 527.33 406.97 534.97 C 400.19 541.05 391.15 544.70 382.02 544.67 C 369.68 545.02 357.39 538.74 350.34 528.63 C 345.21 521.54 342.73 512.65 343.38 503.93 C 344.21 486.60 358.30 471.23 375.44 468.70 M 375.32 474.16 C 364.59 476.29 354.76 483.59 351.07 494.11 C 343.97 509.81 352.24 530.51 368.43 536.65 C 383.45 543.87 403.43 536.76 410.67 521.80 C 413.86 515.22 415.67 507.54 413.83 500.31 C 411.95 492.16 407.72 484.04 400.45 479.50 C 393.13 474.78 383.97 472.04 375.32 474.16 Z" />
</g>
</svg>
